HIERARCHY
ROOT Hips
{
    OFFSET 0.000000 0.000000 0.000000
    CHANNELS 6 Xposition Yposition Zposition Zrotation Yrotation Xrotation
    JOINT Chest
    {
        OFFSET 0.000000 1.634758 -0.000000
        CHANNELS 3 Zrotation Yrotation Xrotation
        JOINT Chest2
        {
            OFFSET 0.000000 2.197341 0.000000
            CHANNELS 3 Zrotation Yrotation Xrotation
            JOINT Neck
            {
                OFFSET 0.000000 0.961544 0.000000
                CHANNELS 3 Zrotation Yrotation Xrotation
                JOINT Head
                {
                    OFFSET 0.000000 0.632542 -0.032565
                    CHANNELS 3 Zrotation Yrotation Xrotation
                    End Site
                    {
                        OFFSET -0.000001 0.439502 2.922845
                    }
                }
            }
            JOINT LeftCollar
            {
                OFFSET 0.167536 0.778237 -0.168280
                CHANNELS 3 Zrotation Yrotation Xrotation
                JOINT LeftShoulder
                {
                    OFFSET 0.831514 -0.002900 0.006458
                    CHANNELS 3 Zrotation Yrotation Xrotation
                    JOINT LeftElbow
                    {
                        OFFSET 2.272872 -0.026639 0.059314
                        CHANNELS 3 Zrotation Yrotation Xrotation
                        JOINT LeftWrist
                        {
                            OFFSET 2.081982 -0.024402 0.054333
                            CHANNELS 3 Zrotation Yrotation Xrotation
                            JOINT LeftHandThumb1
                            {
                                OFFSET 0.218903 -0.128645 0.283837
                                CHANNELS 3 Zrotation Yrotation Xrotation
                                JOINT LeftHandThumb2
                                {
                                    OFFSET 0.137157 -0.025101 0.077902
                                    CHANNELS 3 Zrotation Yrotation Xrotation
                                    JOINT LeftHandThumb3
                                    {
                                        OFFSET 0.165861 -0.067014 0.039226
                                        CHANNELS 3 Zrotation Yrotation Xrotation
                                        End Site
                                        {
                                            OFFSET 0.241157 -0.045065 0.107930
                                        }
                                    }
                                }
                            }
                            JOINT LeftHandFore1
                            {
                                OFFSET 0.767340 -0.016076 0.196678
                                CHANNELS 3 Zrotation Yrotation Xrotation
                                JOINT LeftHandFore2
                                {
                                    OFFSET 0.212759 0.040592 0.008997
                                    CHANNELS 3 Zrotation Yrotation Xrotation
                                    JOINT LeftHandFore3
                                    {
                                        OFFSET 0.116677 0.055962 0.004211
                                        CHANNELS 3 Zrotation Yrotation Xrotation
                                        End Site
                                        {
                                            OFFSET 0.172232 0.087743 0.002052
                                        }
                                    }
                                }
                            }
                            JOINT LeftHandMiddle1
                            {
                                OFFSET 0.709887 -0.008320 0.018526
                                CHANNELS 3 Zrotation Yrotation Xrotation
                                JOINT LeftHandMiddle2
                                {
                                    OFFSET 0.236261 -0.064713 0.007515
                                    CHANNELS 3 Zrotation Yrotation Xrotation
                                    JOINT LeftHandMiddle3
                                    {
                                        OFFSET 0.141086 -0.038182 0.004484
                                        CHANNELS 3 Zrotation Yrotation Xrotation
                                        End Site
                                        {
                                            OFFSET 0.226238 -0.066220 0.007839
                                        }
                                    }
                                }
                            }
                            JOINT LeftHandRing1
                            {
                                OFFSET 0.743817 -0.005823 -0.153668
                                CHANNELS 3 Zrotation Yrotation Xrotation
                                JOINT LeftHandRing2
                                {
                                    OFFSET 0.298779 -0.188077 -0.009538
                                    CHANNELS 3 Zrotation Yrotation Xrotation
                                    JOINT LeftHandRing3
                                    {
                                        OFFSET 0.101347 -0.091282 0.001323
                                        CHANNELS 3 Zrotation Yrotation Xrotation
                                        End Site
                                        {
                                            OFFSET 0.084536 -0.085279 0.000990
                                        }
                                    }
                                }
                            }
                            JOINT LeftHandLittle1
                            {
                                OFFSET 0.689408 -0.053302 -0.308304
                                CHANNELS 3 Zrotation Yrotation Xrotation
                                JOINT LeftHandLittle2
                                {
                                    OFFSET 0.139067 -0.134855 -0.022994
                                    CHANNELS 3 Zrotation Yrotation Xrotation
                                    JOINT LeftHandLittle3
                                    {
                                        OFFSET 0.074986 -0.092929 -0.015415
                                        CHANNELS 3 Zrotation Yrotation Xrotation
                                        End Site
                                        {
                                            OFFSET 0.139993 -0.128281 -0.015315
                                        }
                                    }
                                }
                            }
                        }
                    }
                }
            }
            JOINT RightCollar
            {
                OFFSET -0.167536 0.778237 -0.168280
                CHANNELS 3 Zrotation Yrotation Xrotation
                JOINT RightShoulder
                {
                    OFFSET -0.831514 -0.002900 0.006457
                    CHANNELS 3 Zrotation Yrotation Xrotation
                    JOINT RightElbow
                    {
                        OFFSET -2.272872 -0.026639 0.059313
                        CHANNELS 3 Zrotation Yrotation Xrotation
                        JOINT RightWrist
                        {
                            OFFSET -2.081982 -0.024402 0.054331
                            CHANNELS 3 Zrotation Yrotation Xrotation
                            JOINT RightHandThumb1
                            {
                                OFFSET -0.218911 -0.128571 0.283837
                                CHANNELS 3 Zrotation Yrotation Xrotation
                                JOINT RightHandThumb2
                                {
                                    OFFSET -0.137157 -0.025101 0.077902
                                    CHANNELS 3 Zrotation Yrotation Xrotation
                                    JOINT RightHandThumb3
                                    {
                                        OFFSET -0.165861 -0.067014 0.039226
                                        CHANNELS 3 Zrotation Yrotation Xrotation
                                        End Site
                                        {
                                            OFFSET -0.229436 -0.065997 0.121819
                                        }
                                    }
                                }
                            }
                            JOINT RightHandFore1
                            {
                                OFFSET -0.767344 -0.015991 0.196679
                                CHANNELS 3 Zrotation Yrotation Xrotation
                                JOINT RightHandFore2
                                {
                                    OFFSET -0.212754 0.040641 0.008998
                                    CHANNELS 3 Zrotation Yrotation Xrotation
                                    JOINT RightHandFore3
                                    {
                                        OFFSET -0.116580 0.055970 0.006192
                                        CHANNELS 3 Zrotation Yrotation Xrotation
                                        End Site
                                        {
                                            OFFSET -0.171763 0.087667 0.013373
                                        }
                                    }
                                }
                            }
                            JOINT RightHandMiddle1
                            {
                                OFFSET -0.709887 -0.008302 0.018525
                                CHANNELS 3 Zrotation Yrotation Xrotation
                                JOINT RightHandMiddle2
                                {
                                    OFFSET -0.236251 -0.064735 0.007516
                                    CHANNELS 3 Zrotation Yrotation Xrotation
                                    JOINT RightHandMiddle3
                                    {
                                        OFFSET -0.141086 -0.038198 0.004484
                                        CHANNELS 3 Zrotation Yrotation Xrotation
                                        End Site
                                        {
                                            OFFSET -0.226274 -0.066228 0.006624
                                        }
                                    }
                                }
                            }
                            JOINT RightHandRing1
                            {
                                OFFSET -0.743819 -0.005785 -0.153669
                                CHANNELS 3 Zrotation Yrotation Xrotation
                                JOINT RightHandRing2
                                {
                                    OFFSET -0.298793 -0.188056 -0.009536
                                    CHANNELS 3 Zrotation Yrotation Xrotation
                                    JOINT RightHandRing3
                                    {
                                        OFFSET -0.101241 -0.090871 -0.009886
                                        CHANNELS 3 Zrotation Yrotation Xrotation
                                        End Site
                                        {
                                            OFFSET -0.084444 -0.084920 -0.008833
                                        }
                                    }
                                }
                            }
                            JOINT RightHandLittle1
                            {
                                OFFSET -0.689403 -0.053298 -0.308303
                                CHANNELS 3 Zrotation Yrotation Xrotation
                                JOINT RightHandLittle2
                                {
                                    OFFSET -0.139072 -0.134852 -0.022995
                                    CHANNELS 3 Zrotation Yrotation Xrotation
                                    JOINT RightHandLittle3
                                    {
                                        OFFSET -0.074986 -0.092924 -0.015415
                                        CHANNELS 3 Zrotation Yrotation Xrotation
                                        End Site
                                        {
                                            OFFSET -0.139699 -0.126346 -0.028457
                                        }
                                    }
                                }
                            }
                        }
                    }
                }
            }
        }
    }
    JOINT LeftHip
    {
        OFFSET 0.685143 0.673822 -0.044491
        CHANNELS 3 Zrotation Yrotation Xrotation
        JOINT LeftKnee
        {
            OFFSET 0.085364 -3.750208 0.017676
            CHANNELS 3 Zrotation Yrotation Xrotation
            JOINT LeftAnkle
            {
                OFFSET 0.094583 -4.155206 0.019585
                CHANNELS 3 Zrotation Yrotation Xrotation
                JOINT LeftToe
                {
                    OFFSET -0.000000 -0.395925 0.621478
                    CHANNELS 3 Zrotation Yrotation Xrotation
                    End Site
                    {
                        OFFSET -0.000000 -0.077878 0.321152
                    }
                }
            }
        }
    }
    JOINT RightHip
    {
        OFFSET -0.685143 0.673822 -0.044492
        CHANNELS 3 Zrotation Yrotation Xrotation
        JOINT RightKnee
        {
            OFFSET -0.085364 -3.750208 0.017677
            CHANNELS 3 Zrotation Yrotation Xrotation
            JOINT RightAnkle
            {
                OFFSET -0.094583 -4.155206 0.019585
                CHANNELS 3 Zrotation Yrotation Xrotation
                JOINT RightToe
                {
                    OFFSET -0.000000 -0.395925 0.621478
                    CHANNELS 3 Zrotation Yrotation Xrotation
                    End Site
                    {
                        OFFSET -0.000000 -0.077878 0.321152
                    }
                }
            }
        }
    }
}
MOTION
Frames: 5
Frame Time: 0.033333
-0.809530 8.497799 -1.446146 180.000000 -0.000013 180.000000 -0.000002 -0.000002 -3.571787 -0.000003 0.000001 -3.645259 -6.401597 8.642541 -11.295360 -0.971876 18.234848 -19.507067 4.893001 -6.272669 -0.021970 0.432662 -63.220703 -41.226776 177.972137 -60.485710 -178.824982 -19.594833 -2.186807 -5.408995 -0.000004 -0.000000 -0.000002 0.000001 0.000001 0.000005 0.000002 -0.000000 -0.000007 0.000001 -0.000000 -0.000003 0.000001 -0.000000 0.000000 0.000000 -0.000000 -0.000002 0.000000 -0.000000 -0.000002 -0.000001 0.000001 -0.000002 0.000002 -0.000001 0.000002 -0.000001 -0.000002 -0.000002 0.000000 0.000001 0.000000 0.000006 0.000001 0.000002 0.000001 -0.000001 -0.000002 0.000003 -0.000002 -0.000002 -0.000001 -0.000003 0.000002 -5.990098 7.908447 -0.027758 -14.731386 80.473541 -56.611404 -174.419785 82.171906 -175.140930 43.365238 4.347693 -3.883103 -0.000003 -0.000004 0.000004 0.000001 0.000002 0.000003 -0.000002 -0.000000 0.000000 -0.000002 -0.000001 0.000003 0.000003 0.000001 -0.000002 -0.000002 -0.000002 0.000002 0.000002 0.000001 0.000003 -0.000004 0.000001 -0.000002 -0.000001 -0.000001 -0.000001 -0.000004 0.000002 0.000001 0.000004 -0.000001 -0.000003 0.000008 0.000003 0.000001 0.000004 -0.000000 0.000002 -0.000001 0.000003 -0.000001 -0.000001 -0.000002 0.000001 10.475846 28.428419 17.810078 0.005639 0.121122 5.328631 12.159378 2.991066 67.290092 11.990542 24.045073 13.899753 -23.006779 1.506363 6.713389 -0.005348 -0.118015 5.191736 5.438332 4.172207 67.984131 -2.641404 -8.944930 2.895341
-0.809530 8.497799 -1.446150 180.000000 -0.000013 180.000000 0.000160 0.000050 -3.572420 0.000166 -0.000020 -3.645902 -6.386522 8.644484 -11.291183 -0.971983 18.236790 -19.497522 4.892920 -6.272664 -0.021965 0.429886 -63.219570 -41.224815 177.972153 -60.485016 -178.825012 -19.594852 -2.187312 -5.409231 -0.000004 -0.000008 -0.000007 -0.000001 0.000002 0.000000 0.000000 0.000004 0.000003 0.000006 -0.000000 -0.000002 0.000002 -0.000001 0.000000 -0.000000 0.000003 -0.000002 -0.000006 0.000003 -0.000010 -0.000002 -0.000001 0.000005 0.000000 -0.000001 -0.000002 -0.000006 -0.000003 0.000002 0.000000 0.000002 0.000000 0.000000 -0.000001 0.000005 -0.000008 0.000001 -0.000003 0.000004 -0.000002 0.000000 -0.000001 0.000001 0.000002 -5.989930 7.908382 -0.027760 -14.722630 80.475250 -56.603657 -174.420456 82.170891 -175.141541 43.336536 4.349835 -3.886034 -0.000009 0.000003 0.000005 0.000001 -0.000001 0.000003 -0.000001 0.000001 0.000000 -0.000015 0.000002 -0.000006 0.000001 -0.000000 0.000002 0.000001 0.000002 0.000001 0.000000 0.000006 -0.000007 -0.000001 -0.000000 -0.000002 0.000000 0.000001 0.000001 -0.000006 0.000006 -0.000004 0.000005 0.000001 0.000003 0.000004 -0.000000 -0.000001 0.000002 0.000004 -0.000003 -0.000001 0.000001 0.000000 0.000001 -0.000001 0.000001 10.475836 28.428413 17.810194 0.005637 0.121115 5.328362 12.159390 2.991045 67.290154 11.990611 24.045202 13.899755 -23.006781 1.506366 6.713346 -0.005349 -0.118018 5.191871 5.438329 4.172216 67.984039 -2.641402 -8.944922 2.895338
-0.809528 8.497799 -1.446160 180.000000 -0.000013 180.000000 0.000642 0.000204 -3.574303 0.000660 -0.000081 -3.647832 -6.341972 8.650231 -11.278824 -0.972316 18.242615 -19.469515 4.892634 -6.272672 -0.021951 0.421708 -63.216187 -41.219025 177.972244 -60.482979 -178.825089 -19.594913 -2.188819 -5.409947 -0.000006 -0.000016 -0.000015 0.000000 0.000001 0.000005 0.000003 0.000001 0.000002 0.000010 -0.000000 -0.000003 0.000000 -0.000000 -0.000002 -0.000004 -0.000000 0.000000 -0.000001 0.000001 -0.000012 -0.000003 -0.000001 -0.000002 -0.000001 -0.000000 0.000002 -0.000003 -0.000001 -0.000007 -0.000000 0.000001 0.000002 0.000000 -0.000000 0.000000 -0.000007 -0.000003 -0.000005 0.000003 -0.000001 0.000000 -0.000002 0.000001 0.000000 -5.989472 7.908210 -0.027762 -14.696542 80.480354 -56.580612 -174.422333 82.167885 -175.143448 43.253483 4.355964 -3.894518 0.000003 0.000003 -0.000002 0.000001 -0.000002 0.000003 0.000001 0.000002 -0.000001 -0.000005 -0.000003 -0.000003 0.000005 0.000002 0.000000 0.000000 -0.000001 -0.000001 0.000004 -0.000000 -0.000008 -0.000002 -0.000001 -0.000001 -0.000000 -0.000003 0.000000 -0.000002 0.000003 -0.000005 0.000004 -0.000001 -0.000001 0.000003 -0.000002 -0.000002 0.000010 -0.000000 -0.000003 -0.000003 -0.000000 -0.000003 -0.000000 0.000001 0.000002 10.475807 28.428425 17.809566 0.005639 0.121137 5.329429 12.159401 2.991119 67.289467 11.990556 24.045376 13.899503 -23.006779 1.506370 6.713063 -0.005351 -0.118034 5.192552 5.438299 4.172266 67.983643 -2.641368 -8.944823 2.895302
-0.809525 8.497799 -1.446177 180.000000 -0.000013 180.000000 0.001442 0.000462 -3.577423 0.001490 -0.000182 -3.650992 -6.268985 8.659661 -11.258648 -0.972868 18.252298 -19.423849 4.892255 -6.272684 -0.021943 0.407876 -63.210609 -41.209263 177.972366 -60.479557 -178.825256 -19.595015 -2.191314 -5.411135 -0.000003 -0.000012 -0.000007 -0.000002 0.000005 0.000005 -0.000000 0.000003 0.000002 0.000006 -0.000004 0.000003 -0.000001 -0.000003 0.000000 0.000000 0.000002 0.000002 -0.000000 -0.000000 -0.000005 -0.000003 -0.000000 0.000000 0.000002 -0.000001 -0.000002 0.000001 -0.000004 0.000000 -0.000004 -0.000002 0.000002 0.000006 -0.000000 0.000000 -0.000008 -0.000006 -0.000002 0.000001 -0.000001 0.000002 -0.000003 -0.000000 0.000000 -5.988684 7.907917 -0.027780 -14.653478 80.488792 -56.542622 -174.425369 82.162979 -175.146515 43.120735 4.365632 -3.908085 -0.000004 -0.000003 0.000009 -0.000000 -0.000003 0.000003 -0.000004 -0.000001 -0.000003 -0.000002 -0.000003 0.000002 0.000005 -0.000000 -0.000003 -0.000000 -0.000000 0.000000 -0.000004 -0.000002 -0.000001 -0.000004 -0.000000 -0.000001 0.000001 0.000001 -0.000002 -0.000011 0.000001 -0.000003 -0.000002 -0.000003 -0.000003 0.000004 -0.000000 -0.000001 -0.000008 -0.000001 -0.000002 -0.000005 -0.000001 0.000000 -0.000002 -0.000001 -0.000001 10.475748 28.428425 17.808548 0.005643 0.121174 5.331156 12.159411 2.991256 67.288322 11.990521 24.045691 13.899135 -23.006773 1.506377 6.712759 -0.005349 -0.118052 5.193370 5.438255 4.172325 67.983124 -2.641324 -8.944702 2.895257
-0.809520 8.497799 -1.446202 180.000000 -0.000013 180.000000 0.002561 0.000820 -3.581755 0.002637 -0.000323 -3.655407 -6.168555 8.672629 -11.230919 -0.973642 18.265800 -19.361376 4.891636 -6.272696 -0.021924 0.388666 -63.202827 -41.195633 177.972580 -60.474823 -178.825500 -19.595154 -2.194791 -5.412783 -0.000007 -0.000000 0.000003 -0.000001 0.000003 0.000002 0.000001 0.000003 -0.000003 -0.000006 0.000003 0.000010 0.000005 0.000001 0.000000 -0.000002 0.000003 -0.000002 -0.000010 0.000004 0.000005 -0.000003 -0.000001 -0.000002 0.000003 -0.000002 0.000000 -0.000001 0.000003 0.000005 -0.000003 -0.000003 0.000002 0.000003 -0.000001 -0.000002 0.000000 -0.000000 0.000005 0.000001 -0.000001 0.000000 0.000000 0.000002 0.000000 -5.987548 7.907513 -0.027799 -14.593265 80.500580 -56.489510 -174.429596 82.156212 -175.150787 42.942879 4.378373 -3.926275 -0.000001 -0.000004 0.000010 0.000002 -0.000003 0.000002 0.000000 -0.000001 0.000000 -0.000004 -0.000005 -0.000003 0.000004 -0.000002 -0.000002 0.000002 -0.000001 0.000001 0.000002 -0.000004 -0.000003 -0.000004 -0.000001 0.000002 -0.000002 -0.000000 -0.000001 -0.000005 -0.000003 -0.000003 -0.000001 -0.000002 -0.000001 0.000006 -0.000000 -0.000001 0.000006 -0.000006 -0.000008 -0.000003 -0.000000 -0.000001 0.000004 0.000002 0.000004 10.475657 28.428398 17.807058 0.005650 0.121236 5.333678 12.159414 2.991479 67.286705 11.990433 24.046082 13.898602 -23.006765 1.506397 6.712078 -0.005353 -0.118089 5.195007 5.438183 4.172430 67.982178 -2.641238 -8.944458 2.895170
